<svg xmlns="http://www.w3.org/2000/svg" version="1.1" xmlns:xlink="http://www.w3.org/1999/xlink" width="2000" height="89" viewBox="0 0 2000 89"><svg xml:space="preserve" width="2000" height="89" data-version="2" data-id="lg_C4ium21zXeThx230EH" viewBox="0 0 468 89" x="0" y="0"><rect width="100%" height="100%" fill="transparent"></rect><path d="M61.025 64.77v21.4H5.095v-4.95l6.68-.44q1.24-.12 1.83-.9.59-.79.59-1.63V16.93q0-.84-.59-1.66-.59-.81-1.83-.87l-6.68-.45V9.01h29.37v4.94l-6.12.45q-1.24.06-1.88.87-.65.82-.65 1.66v63.62h24.15q.78 0 1.63-.62.84-.61.89-1.34l1.86-13.82zm58.62 16.9v4.5h-17.01l-1.52-6.8-1.71 1.24q-1.71 1.23-4.52 2.86-2.81 1.63-6.21 2.86-3.39 1.24-6.76 1.24-6.23 0-10.59-4.16-4.35-4.15-4.35-11.39 0-3.2 1.15-5.96 1.15-2.75 4.61-5.25 3.45-2.5 10.27-4.88 6.83-2.39 18.11-4.86v-4.94q0-11.34-10.72-11.34-2.98 0-5.14.56-2.16.56-3 .9v9.99h-8.37q-1.57 0-2.92-.59-1.35-.59-1.35-2.72 0-4.72 3.59-7.72 3.6-3.01 9.13-4.44 5.53-1.43 11.2-1.43 7.13 0 11.06 2.22 3.93 2.22 5.51 6.12 1.57 3.9 1.57 8.9v32.23q0 1.07.7 1.74.7.67 1.71.79zm-18.53-6.34V55.45q-7.75 1.91-12.32 3.85-4.58 1.93-6.83 3.87-2.24 1.94-2.94 3.93-.71 2-.71 4.13 0 3.54 2.28 6.54 2.27 3.01 6.37 3.01 2.3 0 4.78-.82 2.47-.81 4.6-1.91 2.13-1.09 3.45-1.91zm117.64 5.89v4.95h-29.03v-4.95l6.12-.44q1.24-.12 1.88-.9.65-.79.65-1.63v-63.4l-26.45 71.32h-5.73l-25.55-70.25v62.33q0 .84.65 1.63.65.78 1.88.9l6.57.44v4.95h-24.87v-4.95l6.56-.44q1.24-.12 1.83-.9.59-.79.59-1.63V16.93q0-.84-.59-1.66-.59-.81-1.83-.87l-6.56-.45V9.01h25.77v3.09l20.83 56.49 20.83-56.15V9.01h26.45v4.94l-6.23.45q-1.24.06-1.88.87-.65.82-.65 1.66v61.32q0 .84.65 1.63.64.78 1.88.9zm60.14.45v4.5h-17.01l-1.52-6.8-1.71 1.24q-1.71 1.23-4.52 2.86-2.81 1.63-6.21 2.86-3.39 1.24-6.76 1.24-6.24 0-10.59-4.16-4.35-4.15-4.35-11.39 0-3.2 1.15-5.96 1.15-2.75 4.61-5.25 3.45-2.5 10.27-4.88 6.82-2.39 18.11-4.86v-4.94q0-11.34-10.72-11.34-2.98 0-5.14.56-2.16.56-3.01.9v9.99h-8.36q-1.58 0-2.92-.59-1.35-.59-1.35-2.72 0-4.72 3.59-7.72 3.6-3.01 9.13-4.44 5.53-1.43 11.2-1.43 7.13 0 11.06 2.22 3.93 2.22 5.51 6.12 1.57 3.9 1.57 8.9v32.23q0 1.07.7 1.74.7.67 1.71.79zm-18.53-6.34V55.45q-7.75 1.91-12.32 3.85-4.58 1.93-6.83 3.87-2.24 1.94-2.95 3.93-.7 2-.7 4.13 0 3.54 2.28 6.54 2.27 3.01 6.37 3.01 2.3 0 4.77-.82 2.47-.81 4.61-1.91 2.13-1.09 3.45-1.91zm83.33 6.34v4.5h-25.38v-4.5l4.83-.33q1.01-.12 1.71-.79t.7-1.74V48.88q0-5.45-2.52-8.28-2.53-2.84-8.54-2.84-3.26 0-6.48.93-3.23.93-6.15 2.39v37.73q0 2.36 2.41 2.53l4.83.33v4.5h-26v-4.5l5.62-.33q2.41-.17 2.41-2.53V38.89h-8.03v-3.77l14.04-4.38h4.72v5.73q4.83-2.75 9.91-4.94 5.08-2.19 9.07-2.19 7.52 0 11.45 4.69 3.93 4.69 3.93 13.05v31.73q0 1.07.7 1.74.71.67 1.72.79zm52-6.34v6.57q-3.88 2.08-8.73 3.87-4.86 1.8-10.7 1.8-8.03 0-13.95-3.76-5.93-3.76-9.16-10.25-3.23-6.49-3.23-14.74 0-9.66 3.85-16.23t10.16-9.91q6.32-3.34 13.68-3.34 7.58 0 12.72 2.95 5.13 2.95 5.13 8.56 0 3.37-2.1 5.08-2.11 1.72-4.69 1.72-1.91 0-3.31-.65-1.41-.65-2.47-1.32v-9.99q-2.64-1.52-4.83-1.52-5.11 0-8.79 3-3.68 3.01-5.65 8.23-1.96 5.22-1.96 11.9 0 6.35 2.13 11.6 2.14 5.25 6.38 8.34t10.53 3.09q3.98 0 7.63-1.3 3.65-1.29 7.36-3.7m67.21 6.34v4.5h-25.6v-4.5l4.71-.33q1.01-.12 1.77-.79t.76-1.74V49.16q0-4.94-2.36-8.17-2.36-3.23-9.04-3.23-3.03 0-6.54.96-3.51.95-5.98 2.36v37.73q0 2.36 2.3 2.53l4.94.33v4.5h-25.88v-4.5l5.5-.33q2.41-.17 2.41-2.53V9.69h-8.59V5.87l14.71-4.44h4.61v35.04q2.08-1.29 5.39-2.95 3.31-1.65 6.96-2.92 3.65-1.26 6.63-1.26 6.62 0 11.12 4.27 4.49 4.27 4.49 13.14v32.06q0 1.07.76 1.74.76.67 1.77.79z"></path></svg></svg>